<svg width="19" height="20" viewBox="0 0 19 20" fill="none" xmlns="http://www.w3.org/2000/svg">
<path d="M10.7891 15.5859C12.7083 15.2135 13.668 14.2539 13.668 12.707C13.668 10.9596 12.3789 9.75651 9.80078 9.09766C8.19661 8.69661 7.39453 8.10938 7.39453 7.33594C7.39453 6.90625 7.58073 6.54818 7.95312 6.26172C8.35417 5.97526 8.89844 5.83203 9.58594 5.83203C10.875 5.83203 11.5482 6.40495 11.6055 7.55078H13.4102C13.3529 5.91797 12.4792 4.88672 10.7891 4.45703V2.65234H8.33984V4.45703C7.50911 4.62891 6.82161 4.97266 6.27734 5.48828C5.76172 5.97526 5.50391 6.60547 5.50391 7.37891C5.50391 8.98307 6.77865 10.1003 9.32812 10.7305C10.9609 11.1029 11.7773 11.7617 11.7773 12.707C11.7773 13.0794 11.6055 13.4232 11.2617 13.7383C10.9466 14.0247 10.388 14.168 9.58594 14.168C8.06771 14.168 7.2513 13.5951 7.13672 12.4492H5.33203C5.41797 14.082 6.42057 15.1133 8.33984 15.543V17.3477H10.7891V15.5859ZM3.01172 3.55469C4.81641 1.75 6.97917 0.847656 9.5 0.847656C12.0208 0.847656 14.1693 1.75 15.9453 3.55469C17.75 5.33073 18.6523 7.47917 18.6523 10C18.6523 12.5208 17.75 14.6836 15.9453 16.4883C14.1693 18.2643 12.0208 19.1523 9.5 19.1523C6.97917 19.1523 4.81641 18.2643 3.01172 16.4883C1.23568 14.6836 0.347656 12.5208 0.347656 10C0.347656 7.47917 1.23568 5.33073 3.01172 3.55469Z" fill="#8083A3"/>
</svg>
