<svg width="16" height="17" viewBox="0 0 16 17" fill="none" xmlns="http://www.w3.org/2000/svg">
<path d="M8 14.837C9.26389 14.837 10.4387 14.521 11.5243 13.889C12.5937 13.2733 13.4363 12.4307 14.0521 11.3613C14.684 10.2756 15 9.10085 15 7.83696C15 7.36705 14.9514 6.89714 14.8542 6.42724L14.8299 6.2814H8V8.61474H12.6667C12.537 9.3439 12.2494 10.0042 11.8038 10.5956C11.3582 11.1871 10.8032 11.6529 10.1389 11.9932C9.47454 12.3335 8.76157 12.5036 8 12.5036C7.15741 12.5036 6.37963 12.293 5.66667 11.8717C4.9537 11.4504 4.38657 10.8833 3.96528 10.1703C3.54398 9.45733 3.33333 8.67955 3.33333 7.83696C3.33333 6.99437 3.54398 6.21659 3.96528 5.50363C4.38657 4.79066 4.9537 4.22353 5.66667 3.80224C6.37963 3.38094 7.15741 3.17029 8 3.17029C8.56713 3.17029 9.114 3.27157 9.64062 3.47411C10.1672 3.67666 10.6331 3.95617 11.0382 4.31265L12.7153 2.65988C12.0833 2.09275 11.3623 1.64715 10.5521 1.32307C9.7419 0.998997 8.8912 0.83696 8 0.83696C6.73611 0.83696 5.56134 1.15293 4.47569 1.78488C3.40625 2.40062 2.56366 3.24321 1.94792 4.31265C1.31597 5.3983 1 6.57307 1 7.83696C1 9.10085 1.31597 10.2756 1.94792 11.3613C2.56366 12.4307 3.40625 13.2733 4.47569 13.889C5.56134 14.521 6.73611 14.837 8 14.837Z" fill="#8083A3"/>
</svg>
