<svg width="16" height="15" viewBox="0 0 16 15" fill="none" xmlns="http://www.w3.org/2000/svg">
<path d="M11.7617 7.5C11.7617 7.71094 11.6797 7.88672 11.5156 8.02734C11.375 8.16797 11.1992 8.23828 10.9883 8.23828H3.5L0.511719 11.2617V0.75C0.511719 0.539062 0.582031 0.363281 0.722656 0.222656C0.863281 0.0820312 1.03906 0.0117188 1.25 0.0117188H10.9883C11.1992 0.0117188 11.375 0.0820312 11.5156 0.222656C11.6797 0.363281 11.7617 0.539062 11.7617 0.75V7.5ZM14.75 3C14.9609 3 15.1367 3.07031 15.2773 3.21094C15.418 3.35156 15.4883 3.52734 15.4883 3.73828V14.9883L12.5 12H4.23828C4.02734 12 3.85156 11.9297 3.71094 11.7891C3.57031 11.6484 3.5 11.4727 3.5 11.2617V9.75H13.2383V3H14.75Z" fill="#8083A3"/>
</svg>
