<svg width="18" height="13" viewBox="0 0 18 13" fill="none" xmlns="http://www.w3.org/2000/svg">
<path d="M16.4883 10.2617V4.98828H13.5V10.2617H16.4883ZM17.2617 3.51172C17.4727 3.51172 17.6484 3.58203 17.7891 3.72266C17.9297 3.86328 18 4.03906 18 4.25V11.7383C18 11.9492 17.9297 12.1367 17.7891 12.3008C17.6484 12.4414 17.4727 12.5117 17.2617 12.5117H12.7617C12.5508 12.5117 12.3633 12.4414 12.1992 12.3008C12.0586 12.1367 11.9883 11.9492 11.9883 11.7383V4.25C11.9883 4.03906 12.0586 3.86328 12.1992 3.72266C12.3633 3.58203 12.5508 3.51172 12.7617 3.51172H17.2617ZM2.98828 2V10.2617H10.5117V12.5117H0V10.2617H1.51172V2C1.51172 1.60156 1.65234 1.25 1.93359 0.945312C2.23828 0.640625 2.58984 0.488281 2.98828 0.488281H16.4883V2H2.98828Z" fill="#8083A3"/>
</svg>
