<svg width="14" height="15" viewBox="0 0 14 15" fill="none" xmlns="http://www.w3.org/2000/svg">
<path d="M10.7617 11.2617V8.23828H9.25V11.2617H10.7617ZM7.73828 11.2617V3.73828H6.26172V11.2617H7.73828ZM4.75 11.2617V5.98828H3.23828V11.2617H4.75ZM12.2383 0.75C12.6367 0.75 12.9883 0.902344 13.293 1.20703C13.5977 1.51172 13.75 1.86328 13.75 2.26172V12.7383C13.75 13.1367 13.5977 13.4883 13.293 13.793C12.9883 14.0977 12.6367 14.25 12.2383 14.25H1.76172C1.36328 14.25 1.01172 14.0977 0.707031 13.793C0.402344 13.4883 0.25 13.1367 0.25 12.7383V2.26172C0.25 1.86328 0.402344 1.51172 0.707031 1.20703C1.01172 0.902344 1.36328 0.75 1.76172 0.75H12.2383Z" fill="#8083A3"/>
</svg>
