<svg width="40" height="40" viewBox="0 0 40 40" fill="none" xmlns="http://www.w3.org/2000/svg">
<rect x="0.5" y="0.5" width="39" height="39" rx="9.5" fill="white" stroke="#ECEEF5"/>
<path d="M25.2383 19.2617V17.75H22.25V14.7617H20.7383V17.75H17.75V19.2617H20.7383V22.25H22.25V19.2617H25.2383ZM26.0117 12.5117C26.4102 12.5117 26.75 12.6641 27.0312 12.9688C27.3359 13.25 27.4883 13.5898 27.4883 13.9883V22.9883C27.4883 23.3867 27.3359 23.7383 27.0312 24.043C26.75 24.3477 26.4102 24.5 26.0117 24.5H17.0117C16.6133 24.5 16.2617 24.3477 15.957 24.043C15.6523 23.7383 15.5 23.3867 15.5 22.9883V13.9883C15.5 13.5898 15.6523 13.25 15.957 12.9688C16.2617 12.6641 16.6133 12.5117 17.0117 12.5117H26.0117ZM13.9883 15.5V26.0117H24.5V27.4883H13.9883C13.5898 27.4883 13.2383 27.3477 12.9336 27.0664C12.6523 26.7617 12.5117 26.4102 12.5117 26.0117V15.5H13.9883Z" fill="#8083A3"/>
</svg>
