<svg width="36" height="36" viewBox="0 0 36 36" fill="none" xmlns="http://www.w3.org/2000/svg">
<rect x="0.5" y="0.5" width="35" height="35" rx="9.5" fill="white" stroke="#ECEEF5"/>
<path d="M16.9453 16.9453C17.25 16.6406 17.6016 16.4883 18 16.4883C18.3984 16.4883 18.75 16.6406 19.0547 16.9453C19.3594 17.25 19.5117 17.6016 19.5117 18C19.5117 18.3984 19.3594 18.75 19.0547 19.0547C18.75 19.3594 18.3984 19.5117 18 19.5117C17.6016 19.5117 17.25 19.3594 16.9453 19.0547C16.6406 18.75 16.4883 18.3984 16.4883 18C16.4883 17.6016 16.6406 17.25 16.9453 16.9453ZM21.4453 16.9453C21.75 16.6406 22.1016 16.4883 22.5 16.4883C22.8984 16.4883 23.25 16.6406 23.5547 16.9453C23.8594 17.25 24.0117 17.6016 24.0117 18C24.0117 18.3984 23.8594 18.75 23.5547 19.0547C23.25 19.3594 22.8984 19.5117 22.5 19.5117C22.1016 19.5117 21.75 19.3594 21.4453 19.0547C21.1406 18.75 20.9883 18.3984 20.9883 18C20.9883 17.6016 21.1406 17.25 21.4453 16.9453ZM12.4453 16.9453C12.75 16.6406 13.1016 16.4883 13.5 16.4883C13.8984 16.4883 14.25 16.6406 14.5547 16.9453C14.8594 17.25 15.0117 17.6016 15.0117 18C15.0117 18.3984 14.8594 18.75 14.5547 19.0547C14.25 19.3594 13.8984 19.5117 13.5 19.5117C13.1016 19.5117 12.75 19.3594 12.4453 19.0547C12.1406 18.75 11.9883 18.3984 11.9883 18C11.9883 17.6016 12.1406 17.25 12.4453 16.9453Z" fill="#8083A3"/>
</svg>
