<svg width="19" height="20" viewBox="0 0 19 20" fill="none" xmlns="http://www.w3.org/2000/svg">
<path d="M4 13.6523C5.34635 15.6289 7.17969 16.6172 9.5 16.6172C11.8203 16.6172 13.6536 15.6289 15 13.6523C14.9714 12.8503 14.3268 12.1771 13.0664 11.6328C11.806 11.0885 10.6172 10.8164 9.5 10.8164C8.38281 10.8164 7.19401 11.0885 5.93359 11.6328C4.67318 12.1484 4.02865 12.8216 4 13.6523ZM11.4336 4.41406C10.8893 3.86979 10.2448 3.59766 9.5 3.59766C8.75521 3.59766 8.11068 3.86979 7.56641 4.41406C7.02214 4.95833 6.75 5.60286 6.75 6.34766C6.75 7.09245 7.02214 7.73698 7.56641 8.28125C8.11068 8.82552 8.75521 9.09766 9.5 9.09766C10.2448 9.09766 10.8893 8.82552 11.4336 8.28125C11.9779 7.73698 12.25 7.09245 12.25 6.34766C12.25 5.60286 11.9779 4.95833 11.4336 4.41406ZM3.01172 3.55469C4.81641 1.75 6.97917 0.847656 9.5 0.847656C12.0208 0.847656 14.1693 1.75 15.9453 3.55469C17.75 5.33073 18.6523 7.47917 18.6523 10C18.6523 12.5208 17.75 14.6836 15.9453 16.4883C14.1693 18.2643 12.0208 19.1523 9.5 19.1523C6.97917 19.1523 4.81641 18.2643 3.01172 16.4883C1.23568 14.6836 0.347656 12.5208 0.347656 10C0.347656 7.47917 1.23568 5.33073 3.01172 3.55469Z" fill="#8083A3"/>
</svg>
