<svg width="14" height="13" viewBox="0 0 14 13" fill="none" xmlns="http://www.w3.org/2000/svg">
<path d="M7 4.98828L9.98828 8.01172H7.73828V12.5117H6.26172V8.01172H4.01172L7 4.98828ZM12.2383 0.488281C12.6602 0.488281 13.0117 0.640625 13.293 0.945312C13.5977 1.25 13.75 1.60156 13.75 2V11C13.75 11.3984 13.5977 11.75 13.293 12.0547C12.9883 12.3594 12.6367 12.5117 12.2383 12.5117H9.25V11H12.2383V3.51172H1.76172V11H4.75V12.5117H1.76172C1.33984 12.5117 0.976562 12.3594 0.671875 12.0547C0.390625 11.75 0.25 11.3984 0.25 11V2C0.25 1.60156 0.390625 1.25 0.671875 0.945312C0.976562 0.640625 1.33984 0.488281 1.76172 0.488281H12.2383Z" fill="#8083A3"/>
</svg>
