<svg width="137" height="40" viewBox="0 0 137 40" fill="none" xmlns="http://www.w3.org/2000/svg">
<path fill-rule="evenodd" clip-rule="evenodd" d="M123.136 28.1818V11.2955H120.33V28.1818H123.136ZM58.5966 27.875C57.9867 28.178 57.2841 28.3296 56.4886 28.3296C55.7007 28.3296 55.0227 28.1762 54.4545 27.8693C53.8863 27.5625 53.3977 27.1099 52.9886 26.5114L52.9204 27.8977C52.8977 28.0871 52.7954 28.1818 52.6136 28.1818H51.9545V11.6477H53.0454V18.8523C53.5454 18.1856 54.125 17.6591 54.7841 17.2727C55.4432 16.8864 56.1856 16.6932 57.0113 16.6932C58.3977 16.6932 59.4792 17.1724 60.2557 18.1307C61.0322 19.089 61.4204 20.5303 61.4204 22.4546C61.4204 23.2803 61.3125 24.0512 61.0966 24.7671C60.8807 25.483 60.5625 26.1042 60.142 26.6307C59.7216 27.1572 59.2064 27.572 58.5966 27.875ZM54.4773 27.0852C55 27.3466 55.6023 27.4773 56.2841 27.4773C56.9507 27.4773 57.5341 27.3561 58.0341 27.1137C58.5341 26.8712 58.9526 26.5284 59.2898 26.0852C59.6269 25.6421 59.8807 25.1118 60.0511 24.4943C60.2216 23.8769 60.3068 23.197 60.3068 22.4546C60.3068 20.7727 59.9962 19.536 59.375 18.7443C58.7538 17.9527 57.8636 17.5568 56.7045 17.5568C55.9545 17.5568 55.2765 17.75 54.6704 18.1364C54.0644 18.5227 53.5227 19.0606 53.0454 19.75V25.7159C53.4773 26.3674 53.9545 26.8239 54.4773 27.0852ZM69.0341 28.3296C69.4583 28.3296 69.8807 28.2879 70.3011 28.2046C70.7216 28.1212 71.1155 28.0095 71.4829 27.8693C71.8504 27.7292 72.1837 27.5606 72.4829 27.3637C72.7822 27.1667 73.0227 26.9546 73.2045 26.7273L72.9091 26.3637C72.856 26.2879 72.7803 26.25 72.6818 26.25C72.606 26.25 72.4848 26.3125 72.3182 26.4375C72.1515 26.5625 71.9261 26.7027 71.642 26.858C71.3579 27.0133 71.0076 27.1534 70.5909 27.2784C70.1742 27.4034 69.6818 27.4659 69.1136 27.4659C68.4773 27.4659 67.9015 27.3561 67.3863 27.1364C66.8712 26.9167 66.4318 26.589 66.0682 26.1534C65.7045 25.7178 65.4242 25.178 65.2273 24.5341C65.0303 23.8902 64.9318 23.144 64.9318 22.2955V22.0796H73.1023C73.2083 22.0796 73.286 22.0493 73.3352 21.9887C73.3845 21.928 73.4091 21.8144 73.4091 21.6477C73.4091 20.8523 73.2973 20.1477 73.0738 19.5341C72.8504 18.9205 72.5398 18.4034 72.142 17.983C71.7443 17.5625 71.2746 17.2424 70.7329 17.0227C70.1913 16.803 69.6023 16.6932 68.9659 16.6932C68.1629 16.6932 67.4451 16.8334 66.8125 17.1137C66.1799 17.394 65.6458 17.7822 65.2102 18.2784C64.7746 18.7746 64.4413 19.3655 64.2102 20.0512C63.9792 20.7368 63.8636 21.4849 63.8636 22.2955C63.8636 23.2576 63.9867 24.1118 64.2329 24.858C64.4792 25.6042 64.8295 26.2349 65.2841 26.75C65.7386 27.2652 66.2841 27.6572 66.9204 27.9262C67.5568 28.1951 68.2613 28.3296 69.0341 28.3296ZM64.9773 21.3864H72.4318C72.4318 20.7803 72.3485 20.2368 72.1818 19.7557C72.0151 19.2746 71.7803 18.8674 71.4773 18.5341C71.1742 18.2008 70.8106 17.9451 70.3863 17.7671C69.9621 17.589 69.4924 17.5 68.9773 17.5C68.3939 17.5 67.8712 17.5909 67.4091 17.7727C66.947 17.9546 66.5473 18.2159 66.2102 18.5568C65.8731 18.8977 65.6004 19.3068 65.392 19.7841C65.1837 20.2614 65.0454 20.7955 64.9773 21.3864ZM79.8636 28.3637C80.3409 28.3637 80.8011 28.2671 81.2443 28.0739C81.6875 27.8807 82.053 27.625 82.3409 27.3068L82.0454 26.8296C81.9848 26.7538 81.9242 26.7159 81.8636 26.7159C81.8106 26.7159 81.7386 26.7557 81.6477 26.8352C81.5568 26.9148 81.4394 27.0019 81.2954 27.0966C81.1515 27.1913 80.981 27.2784 80.7841 27.358C80.5871 27.4375 80.3523 27.4773 80.0795 27.4773C79.8598 27.4773 79.6553 27.4432 79.4659 27.375C79.2765 27.3068 79.1117 27.2008 78.9716 27.0568C78.8314 26.9129 78.7216 26.7292 78.642 26.5057C78.5625 26.2822 78.5227 26.0152 78.5227 25.7046V18.0341H82.0795V17.2273H78.5227V12.9091H78.0113C77.928 12.9091 77.8617 12.9356 77.8125 12.9887C77.7632 13.0417 77.7348 13.1023 77.7273 13.1705L77.4545 17.2159L75.5227 17.3523V17.7727C75.5227 17.8561 75.5492 17.9205 75.6023 17.9659C75.6553 18.0114 75.7235 18.0341 75.8068 18.0341H77.4318V25.7614C77.4318 26.6477 77.6458 27.303 78.0738 27.7273C78.5019 28.1515 79.0985 28.3637 79.8636 28.3637ZM89 28.233C88.6136 28.3201 88.1894 28.3637 87.7273 28.3637C87.3409 28.3637 86.9659 28.3068 86.6023 28.1932C86.2386 28.0796 85.9167 27.9053 85.6364 27.6705C85.3561 27.4356 85.1307 27.1345 84.9602 26.7671C84.7898 26.3996 84.7045 25.9584 84.7045 25.4432C84.7045 24.9659 84.8409 24.5227 85.1136 24.1137C85.3864 23.7046 85.8125 23.3485 86.392 23.0455C86.9716 22.7424 87.7178 22.5 88.6307 22.3182C89.5435 22.1364 90.6401 22.0303 91.9204 22V20.8182C91.9204 19.7727 91.6951 18.9678 91.2443 18.4034C90.7935 17.839 90.125 17.5568 89.2386 17.5568C88.6932 17.5568 88.2292 17.6326 87.8466 17.7841C87.464 17.9356 87.1401 18.1023 86.875 18.2841C86.6098 18.4659 86.3939 18.6326 86.2273 18.7841C86.0606 18.9356 85.9204 19.0114 85.8068 19.0114C85.6553 19.0114 85.5417 18.9432 85.4659 18.8068L85.2727 18.4773C85.8636 17.8864 86.4848 17.4394 87.1364 17.1364C87.7879 16.8334 88.5265 16.6818 89.3523 16.6818C89.9583 16.6818 90.4886 16.7784 90.9432 16.9716C91.3977 17.1648 91.7746 17.4413 92.0738 17.8012C92.3731 18.161 92.5985 18.5966 92.75 19.108C92.9015 19.6193 92.9773 20.1894 92.9773 20.8182V28.1818H92.5454C92.3182 28.1818 92.178 28.0758 92.125 27.8637L91.9659 26.4205C91.6553 26.7235 91.3466 26.9962 91.0398 27.2387C90.7329 27.4811 90.4129 27.6856 90.0795 27.8523C89.7462 28.019 89.3863 28.1459 89 28.233ZM88 27.5796C87.7045 27.5796 87.4204 27.5379 87.1477 27.4546C86.875 27.3712 86.6363 27.2405 86.4318 27.0625C86.2273 26.8845 86.0625 26.6572 85.9375 26.3807C85.8125 26.1042 85.75 25.7765 85.75 25.3977C85.75 24.9962 85.8693 24.6383 86.1079 24.3239C86.3466 24.0095 86.7178 23.7387 87.2216 23.5114C87.7254 23.2841 88.3655 23.1042 89.142 22.9716C89.9185 22.839 90.8447 22.7576 91.9204 22.7273V25.6705C91.6553 25.9432 91.3863 26.197 91.1136 26.4318C90.8409 26.6667 90.5473 26.8693 90.2329 27.0398C89.9185 27.2102 89.5776 27.3428 89.2102 27.4375C88.8428 27.5322 88.4394 27.5796 88 27.5796ZM102.193 28.2614C101.777 28.322 101.364 28.3523 100.955 28.3523C100.235 28.3523 99.5568 28.2178 98.9204 27.9489C98.2841 27.6799 97.7292 27.2879 97.2557 26.7727C96.7822 26.2576 96.4072 25.6269 96.1307 24.8807C95.8542 24.1345 95.7159 23.2841 95.7159 22.3296C95.7159 21.4735 95.839 20.6799 96.0852 19.9489C96.3314 19.2178 96.6932 18.5852 97.1704 18.0512C97.6477 17.5171 98.2386 17.0985 98.9432 16.7955C99.6477 16.4924 100.458 16.3409 101.375 16.3409C102.246 16.3409 103.009 16.4811 103.665 16.7614C104.32 17.0417 104.909 17.4432 105.432 17.9659L104.693 18.9887C104.61 19.0947 104.528 19.178 104.449 19.2387C104.369 19.2993 104.254 19.3296 104.102 19.3296C103.958 19.3296 103.818 19.286 103.682 19.1989C103.545 19.1118 103.383 19.0133 103.193 18.9034C103.004 18.7936 102.778 18.6951 102.517 18.608C102.256 18.5208 101.932 18.4773 101.545 18.4773C101.053 18.4773 100.621 18.5663 100.25 18.7443C99.8788 18.9224 99.5701 19.178 99.3238 19.5114C99.0776 19.8447 98.8939 20.2481 98.7727 20.7216C98.6515 21.1951 98.5909 21.7311 98.5909 22.3296C98.5909 22.9508 98.6572 23.5038 98.7898 23.9887C98.9223 24.4735 99.1136 24.8807 99.3636 25.2102C99.6136 25.5398 99.9167 25.7898 100.273 25.9602C100.629 26.1307 101.03 26.2159 101.477 26.2159C101.924 26.2159 102.286 26.161 102.562 26.0512C102.839 25.9413 103.072 25.8201 103.261 25.6875C103.451 25.5549 103.616 25.4337 103.756 25.3239C103.896 25.214 104.053 25.1591 104.227 25.1591C104.455 25.1591 104.625 25.2462 104.739 25.4205L105.545 26.4432C105.235 26.8068 104.898 27.1118 104.534 27.358C104.17 27.6042 103.794 27.8012 103.403 27.9489C103.013 28.0966 102.61 28.2008 102.193 28.2614ZM110.602 28.3637C111.019 28.3637 111.398 28.3296 111.739 28.2614C112.08 28.1932 112.401 28.0909 112.705 27.9546C113.008 27.8182 113.301 27.6496 113.585 27.4489C113.869 27.2481 114.159 27.0152 114.455 26.75L114.705 27.5796C114.78 27.822 114.894 27.983 115.045 28.0625C115.197 28.1421 115.405 28.1818 115.67 28.1818H116.932V20.8182C116.932 20.1591 116.835 19.553 116.642 19C116.449 18.447 116.167 17.9716 115.795 17.5739C115.424 17.1762 114.972 16.8655 114.437 16.6421C113.903 16.4186 113.295 16.3068 112.614 16.3068C110.72 16.3068 109.102 16.9205 107.761 18.1477L108.273 19.0455C108.356 19.1894 108.466 19.3106 108.602 19.4091C108.739 19.5076 108.901 19.5568 109.091 19.5568C109.318 19.5568 109.526 19.5038 109.716 19.3977C109.905 19.2917 110.112 19.1724 110.335 19.0398C110.559 18.9072 110.822 18.7879 111.125 18.6818C111.428 18.5758 111.807 18.5227 112.261 18.5227C112.89 18.5227 113.369 18.7102 113.699 19.0852C114.028 19.4602 114.193 20.0379 114.193 20.8182V21.5C112.867 21.5303 111.758 21.6591 110.864 21.8864C109.97 22.1137 109.254 22.3996 108.716 22.7443C108.178 23.089 107.794 23.4754 107.562 23.9034C107.331 24.3315 107.216 24.7652 107.216 25.2046C107.216 25.7273 107.299 26.1856 107.466 26.5796C107.633 26.9735 107.866 27.303 108.165 27.5682C108.464 27.8334 108.822 28.0322 109.239 28.1648C109.655 28.2974 110.11 28.3637 110.602 28.3637ZM110.335 26.1137C110.627 26.3258 111.008 26.4318 111.477 26.4318C111.765 26.4318 112.03 26.4053 112.273 26.3523C112.515 26.2993 112.744 26.2197 112.96 26.1137C113.176 26.0076 113.384 25.8769 113.585 25.7216C113.786 25.5663 113.989 25.3826 114.193 25.1705V23.2046C113.375 23.2424 112.691 23.3125 112.142 23.4148C111.593 23.5171 111.151 23.6477 110.818 23.8068C110.485 23.9659 110.248 24.1515 110.108 24.3637C109.968 24.5758 109.898 24.8068 109.898 25.0568C109.898 25.5493 110.044 25.9015 110.335 26.1137ZM129.75 11.2955V28.1818H126.943V11.2955H129.75Z" fill="#1A1C1D"/>
<rect width="44" height="40" rx="14" fill="#6B59CC"/>
<mask id="mask0_198_651" style="mask-type:luminance" maskUnits="userSpaceOnUse" x="0" y="0" width="44" height="40">
<rect width="44" height="40" rx="14" fill="white"/>
</mask>
<g mask="url(#mask0_198_651)">
<path fill-rule="evenodd" clip-rule="evenodd" d="M25.5156 28.0682C24.526 28.9678 23.3542 29.4176 22 29.4176C20.6458 29.4176 19.474 28.9678 18.4844 28.0682C17.4948 27.1685 17 26.1032 17 24.8721V15.7812C17 14.5502 17.4948 13.4848 18.4844 12.5852C19.474 11.6856 20.6458 11.2358 22 11.2358C23.3542 11.2358 24.526 11.6856 25.5156 12.5852C26.5052 13.4848 27 14.5502 27 15.7812V24.8721C27 26.1032 26.5052 27.1685 25.5156 28.0682ZM23.6406 35.0284V40H20.3594V35.0284C17.599 34.6496 15.2422 33.5014 13.2891 31.5838C11.3359 29.6662 10.3594 27.429 10.3594 24.8721H13.1719C13.1719 27.0975 14.0443 28.9323 15.7891 30.3764C17.5339 31.8205 19.6042 32.5426 22 32.5426C24.3958 32.5426 26.4661 31.8205 28.2109 30.3764C29.9557 28.9323 30.8281 27.0975 30.8281 24.8721H33.6406C33.6406 27.429 32.6641 29.6662 30.7109 31.5838C28.7578 33.5014 26.401 34.6496 23.6406 35.0284Z" fill="white"/>
</g>
</svg>
