<svg width="15" height="19" viewBox="0 0 15 19" fill="none" xmlns="http://www.w3.org/2000/svg">
<path d="M13 12.6523L14.8477 14.5V15.4023H0.152344V14.5L2 12.6523V8.09766C2 6.66536 2.35807 5.41927 3.07422 4.35938C3.81901 3.29948 4.83594 2.61198 6.125 2.29688V1.65234C6.125 1.27995 6.25391 0.964844 6.51172 0.707031C6.76953 0.420573 7.09896 0.277344 7.5 0.277344C7.90104 0.277344 8.23047 0.420573 8.48828 0.707031C8.74609 0.964844 8.875 1.27995 8.875 1.65234V2.29688C10.1641 2.61198 11.1667 3.29948 11.8828 4.35938C12.6276 5.41927 13 6.66536 13 8.09766V12.6523ZM7.5 18.1523C6.98438 18.1523 6.54036 17.9805 6.16797 17.6367C5.82422 17.2643 5.65234 16.8346 5.65234 16.3477H9.34766C9.34766 16.8346 9.16146 17.2643 8.78906 17.6367C8.41667 17.9805 7.98698 18.1523 7.5 18.1523Z" fill="#8083A3"/>
</svg>
