<svg width="44" height="40" viewBox="0 0 44 40" fill="none" xmlns="http://www.w3.org/2000/svg">
<rect width="44" height="40" rx="14" fill="#6B59CC"/>
<mask id="mask0_231_436" style="mask-type:luminance" maskUnits="userSpaceOnUse" x="0" y="0" width="44" height="40">
<rect width="44" height="40" rx="14" fill="white"/>
</mask>
<g mask="url(#mask0_231_436)">
<path fill-rule="evenodd" clip-rule="evenodd" d="M25.5156 28.0682C24.526 28.9678 23.3542 29.4176 22 29.4176C20.6458 29.4176 19.474 28.9678 18.4844 28.0682C17.4948 27.1685 17 26.1032 17 24.8721V15.7812C17 14.5502 17.4948 13.4848 18.4844 12.5852C19.474 11.6856 20.6458 11.2358 22 11.2358C23.3542 11.2358 24.526 11.6856 25.5156 12.5852C26.5052 13.4848 27 14.5502 27 15.7812V24.8721C27 26.1032 26.5052 27.1685 25.5156 28.0682ZM23.6406 35.0284V40H20.3594V35.0284C17.599 34.6496 15.2422 33.5014 13.2891 31.5838C11.3359 29.6662 10.3594 27.429 10.3594 24.8721H13.1719C13.1719 27.0975 14.0443 28.9323 15.7891 30.3764C17.5339 31.8205 19.6042 32.5426 22 32.5426C24.3958 32.5426 26.4661 31.8205 28.2109 30.3764C29.9557 28.9323 30.8281 27.0975 30.8281 24.8721H33.6406C33.6406 27.429 32.6641 29.6662 30.7109 31.5838C28.7578 33.5014 26.401 34.6496 23.6406 35.0284Z" fill="white"/>
</g>
</svg>
