<svg width="16" height="17" viewBox="0 0 16 17" fill="none" xmlns="http://www.w3.org/2000/svg">
<path d="M14.3437 5.33697C14.3645 5.4203 14.375 5.55572 14.375 5.74322C14.375 7.24321 14.0104 8.69113 13.2812 10.087C12.5312 11.5661 11.4791 12.7432 10.125 13.6182C8.64581 14.5974 6.9479 15.0869 5.03124 15.0869C3.19791 15.0869 1.52083 14.5974 0 13.6182C0.229166 13.639 0.489582 13.6494 0.781248 13.6494C2.30208 13.6494 3.66666 13.1807 4.87499 12.2432C4.14582 12.2432 3.5052 12.0297 2.95312 11.6026C2.40104 11.1755 2.02083 10.639 1.8125 9.99321C2.02083 10.014 2.21874 10.0245 2.40624 10.0245C2.69791 10.0245 2.98958 9.99321 3.28124 9.93071C2.53124 9.76404 1.90625 9.37862 1.40625 8.77446C0.906248 8.17029 0.656248 7.4828 0.656248 6.71196V6.64946C1.11458 6.9203 1.60416 7.06613 2.12499 7.08696C1.6875 6.77446 1.33333 6.37863 1.0625 5.89947C0.791665 5.4203 0.656248 4.89426 0.656248 4.32134C0.656248 3.74843 0.812498 3.20156 1.125 2.68072C1.9375 3.70155 2.93228 4.51405 4.10936 5.11822C5.28645 5.72238 6.54165 6.05572 7.87498 6.11822C7.83331 5.86822 7.81248 5.61822 7.81248 5.36822C7.81248 4.78489 7.95831 4.23801 8.24998 3.7276C8.54165 3.21718 8.93748 2.81614 9.43748 2.52447C9.93748 2.23281 10.4791 2.08698 11.0625 2.08698C11.5416 2.08698 11.9843 2.18072 12.3906 2.36822C12.7968 2.55572 13.1562 2.80572 13.4687 3.11822C14.2187 2.97239 14.9166 2.71197 15.5625 2.33697C15.3125 3.10781 14.8333 3.71197 14.125 4.14947C14.75 4.06614 15.375 3.88905 16 3.61822C15.5416 4.28489 14.9895 4.8578 14.3437 5.33697Z" fill="#8083A3"/>
</svg>
